<?xml version="1.0" standalone="no"?>
<!DOCTYPE svg PUBLIC "-//W3C//DTD SVG 20010904//EN"
 "http://www.w3.org/TR/2001/REC-SVG-20010904/DTD/svg10.dtd">
<svg version="1.0" xmlns="http://www.w3.org/2000/svg"
 width="1104.000000pt" height="1104.000000pt" viewBox="0 0 1104.000000 1104.000000"
 preserveAspectRatio="xMidYMid meet">

<g transform="translate(0.000000,1104.000000) scale(0.100000,-0.100000)"
fill="#000000" stroke="none">
<path d="M8420 8665 c-302 -80 -598 -194 -1067 -411 -28 -13 -54 -24 -57 -24
-3 0 -85 -38 -181 -85 -97 -47 -179 -85 -182 -85 -3 0 -60 -26 -127 -59 -197
-95 -330 -158 -451 -211 -27 -12 -81 -37 -120 -55 -109 -52 -205 -95 -212 -95
-3 0 -38 -15 -77 -34 -39 -19 -111 -53 -161 -76 -49 -23 -103 -52 -120 -64
-16 -12 -75 -49 -130 -81 -55 -32 -119 -72 -141 -88 -45 -31 -81 -33 -76 -4 4
23 -3 22 -41 -6 -18 -13 -59 -37 -92 -53 -76 -36 -132 -72 -169 -106 -16 -16
-33 -29 -37 -29 -5 -1 -13 -3 -19 -4 -5 -1 -14 -3 -18 -4 -5 0 -8 -11 -8 -23
1 -15 -8 -27 -26 -36 -16 -7 -28 -19 -28 -26 0 -7 -15 -30 -34 -52 -18 -21
-36 -49 -40 -62 -4 -12 -12 -20 -17 -17 -5 4 -9 1 -9 -4 0 -6 -7 -11 -15 -11
-8 0 -15 -7 -15 -15 0 -8 -9 -19 -20 -25 -11 -6 -23 -23 -26 -38 -4 -15 -14
-37 -21 -49 -8 -12 -12 -27 -8 -33 3 -5 1 -10 -4 -10 -6 0 -11 6 -11 14 0 7
-7 19 -15 26 -13 11 -15 6 -17 -31 -1 -24 -2 -52 -2 -62 -2 -26 -64 -54 -113
-52 -39 2 -73 22 -73 42 0 8 -14 8 -92 4 -19 -1 -48 -27 -48 -43 0 -5 12 -7
29 -3 24 5 29 3 27 -12 -1 -13 5 -17 20 -16 14 2 24 -4 27 -17 6 -22 51 -28
63 -9 4 7 23 9 49 6 44 -6 75 12 75 42 0 8 8 11 20 8 11 -3 20 -1 20 3 0 5 11
7 25 6 14 -2 36 3 50 10 14 7 27 9 30 3 4 -5 1 -9 -4 -9 -6 0 -11 -5 -11 -11
0 -6 7 -8 16 -5 11 4 28 -6 50 -29 18 -19 40 -35 49 -35 8 0 18 -7 21 -15 4
-8 12 -15 20 -15 8 0 19 -9 26 -20 7 -11 21 -20 30 -20 10 0 18 -5 18 -11 0
-6 -9 -9 -19 -6 -10 2 -25 1 -32 -4 -10 -6 -6 -9 13 -9 15 0 33 -6 40 -13 7
-8 19 -12 27 -9 7 2 16 0 20 -5 3 -5 29 -23 57 -40 28 -17 63 -42 78 -57 16
-14 32 -23 37 -20 5 3 7 -1 4 -8 -3 -8 9 -18 35 -26 82 -25 300 -176 300 -207
0 -3 -13 -5 -30 -5 -22 0 -30 5 -30 18 0 14 -2 15 -10 2 -8 -13 -10 -13 -10 2
0 10 -7 16 -19 15 -11 0 -17 -6 -13 -11 7 -13 6 -94 -3 -123 -4 -13 -11 -20
-17 -17 -5 3 -4 12 3 20 6 8 8 18 4 22 -4 4 -10 2 -12 -4 -5 -14 -131 -7 -150
8 -7 5 -14 5 -18 -2 -3 -5 4 -14 17 -19 27 -11 68 -48 68 -61 0 -5 -6 -7 -14
-4 -11 4 -16 -4 -18 -27 -2 -18 -8 -34 -15 -36 -7 -3 -9 3 -6 16 3 13 1 21 -6
21 -7 0 -9 -4 -6 -10 4 -6 -6 -10 -22 -10 -22 0 -25 2 -13 10 8 5 10 10 4 10
-14 0 -39 -28 -31 -36 5 -5 -28 -44 -38 -44 -3 0 -5 6 -5 14 0 8 -7 16 -15 20
-11 4 -15 -1 -14 -17 0 -12 3 -16 6 -9 4 10 9 7 18 -10 6 -12 8 -27 5 -33 -4
-5 -11 -25 -15 -42 -8 -38 -7 -38 -45 -18 -29 15 -44 8 -35 -17 5 -14 -48 -42
-72 -39 -7 1 -13 -2 -13 -8 0 -5 6 -12 13 -14 7 -3 5 -6 -5 -6 -22 -1 -24 -31
-3 -31 8 0 15 -4 15 -8 0 -13 -83 -7 -87 5 -3 7 0 20 6 30 10 20 -2 53 -16 40
-4 -5 -2 -12 6 -16 10 -6 9 -10 -4 -15 -9 -3 -21 -3 -27 0 -5 3 -12 -3 -15
-15 -5 -21 -19 -28 -25 -12 -1 4 -13 12 -25 15 -17 6 -23 3 -23 -9 0 -10 -5
-13 -12 -9 -17 11 -68 13 -68 3 0 -5 -7 -9 -15 -9 -23 0 -18 -26 8 -38 12 -6
16 -11 9 -11 -7 -1 -10 -6 -7 -12 4 -6 -3 -13 -15 -16 -17 -5 -21 -12 -18 -37
2 -24 -1 -31 -15 -30 -26 3 -20 -15 8 -22 14 -3 25 -10 25 -15 0 -13 -24 -11
-38 3 -6 6 -15 8 -19 3 -5 -4 -2 -10 4 -12 8 -3 11 -14 8 -26 -3 -12 1 -31 9
-42 14 -17 17 -18 27 -5 9 13 10 12 5 -3 -3 -10 -6 -21 -6 -23 0 -2 -7 -4 -15
-4 -8 0 -15 5 -15 11 0 29 -71 52 -85 29 -4 -6 0 -24 9 -40 8 -17 10 -30 5
-30 -5 0 -9 -5 -9 -10 0 -6 7 -10 16 -8 10 2 19 -2 21 -7 2 -6 -7 -11 -19 -12
-16 -2 -30 8 -45 32 -12 18 -19 35 -15 38 4 2 1 2 -6 1 -7 -2 -15 3 -19 12 -4
10 -17 15 -37 14 -54 -3 -66 0 -66 16 0 17 -36 54 -52 54 -4 0 -8 11 -8 25 0
14 -9 30 -20 37 -21 13 -28 58 -10 58 6 0 21 -6 33 -14 29 -18 87 -19 94 -1 4
12 7 12 20 0 8 -8 20 -15 28 -15 16 0 28 41 15 54 -4 4 -6 14 -4 21 6 14 -53
19 -61 4 -4 -5 -1 -9 5 -9 6 0 8 -5 5 -10 -3 -6 -18 -7 -33 -3 -15 4 -35 6
-44 5 -10 0 -18 4 -18 10 0 6 -8 4 -18 -5 -23 -21 -33 -22 -26 -2 4 8 1 15 -5
15 -6 0 -11 -6 -12 -12 0 -7 -4 -4 -9 7 -7 17 -9 17 -9 3 -1 -22 -7 -22 -46 1
-16 10 -29 25 -27 33 1 9 -8 19 -20 22 -20 6 -21 8 -6 14 23 9 9 27 -22 30
-67 5 -100 11 -154 31 -44 16 -55 17 -46 6 19 -23 6 -41 -52 -69 -71 -36 -100
-60 -92 -80 4 -11 -5 -27 -25 -46 -17 -17 -31 -37 -31 -44 0 -8 -3 -16 -7 -18
-5 -1 -18 -24 -31 -50 -24 -48 -35 -61 -62 -65 -8 -1 -16 -7 -18 -13 -9 -25
-65 -80 -88 -86 -15 -4 -27 -16 -31 -32 -3 -13 -13 -33 -22 -42 -28 -30 -49
-58 -62 -82 -6 -13 -15 -25 -18 -28 -3 -3 -12 -18 -20 -35 -7 -16 -17 -37 -21
-45 -15 -30 -61 -190 -66 -232 -6 -36 -4 -41 8 -30 41 34 35 -56 -11 -153 -47
-101 -90 -216 -106 -285 -9 -41 -28 -122 -41 -180 -14 -58 -33 -143 -43 -190
-19 -85 -108 -485 -137 -615 -9 -38 -22 -97 -29 -130 -7 -33 -27 -125 -44
-205 -18 -80 -36 -165 -41 -190 -4 -25 -22 -110 -38 -190 -42 -202 -70 -352
-82 -440 -6 -41 -16 -109 -22 -150 -16 -109 -16 -454 0 -508 17 -55 38 -64 68
-28 18 20 29 25 49 20 18 -5 34 2 64 25 46 37 76 85 122 198 21 54 38 83 48
83 46 1 146 107 201 215 9 17 27 32 45 37 17 4 46 21 67 38 37 31 101 134 114
184 3 15 14 30 23 34 23 9 83 48 104 69 26 25 72 118 92 185 20 69 45 102 96
128 42 22 68 64 109 178 16 45 30 66 46 72 12 5 26 16 32 25 5 9 19 22 33 28
35 18 65 79 90 182 23 95 66 174 106 196 25 14 44 60 69 169 17 73 59 167 90
201 24 27 40 94 54 222 l13 119 26 -5 c31 -6 61 8 61 28 0 8 -29 31 -65 52
-35 21 -65 41 -65 46 0 12 136 8 194 -7 33 -9 66 -12 83 -7 26 7 28 10 25 54
-4 45 -3 46 33 56 22 6 56 30 87 61 46 47 50 54 39 76 -15 34 -14 44 5 44 9 0
50 16 91 36 l75 35 -6 40 c-6 37 -5 39 28 53 19 8 41 24 48 35 7 12 20 21 28
21 8 0 26 9 39 19 19 15 23 24 18 48 -5 28 -3 31 33 43 43 14 66 10 156 -26
34 -13 79 -25 100 -25 83 -1 127 -17 153 -57 13 -20 37 -53 53 -72 63 -78 192
-245 329 -425 79 -104 149 -197 156 -205 118 -148 312 -410 481 -650 215 -306
249 -352 308 -415 53 -55 82 -67 103 -41 9 11 0 30 -41 91 -29 42 -69 105 -89
139 -19 33 -67 108 -105 164 -38 57 -76 116 -84 130 -8 15 -31 54 -50 87 -19
33 -40 78 -48 100 -18 55 -64 168 -73 180 -22 30 -119 330 -119 368 0 17 57
-43 70 -74 7 -16 18 -29 25 -29 29 0 35 27 28 133 l-6 106 41 40 c28 28 43 52
47 78 10 60 12 62 52 68 58 9 109 37 105 59 -3 17 2 18 70 12 40 -4 91 -9 113
-11 48 -4 224 -52 390 -105 137 -44 214 -65 265 -74 38 -7 155 -50 260 -96 56
-24 99 -41 205 -80 11 -4 31 -12 45 -18 14 -6 45 -17 70 -25 25 -8 97 -33 160
-56 126 -45 140 -48 140 -27 0 30 -126 103 -310 179 -234 97 -613 278 -830
397 -58 31 -130 71 -160 87 -86 47 -150 83 -213 119 -32 19 -61 34 -63 34 -3
0 -18 8 -32 19 -15 10 -67 40 -117 66 -82 44 -175 95 -217 120 -9 6 -43 25
-75 44 -77 46 -210 138 -234 164 l-19 20 -25 -27 c-30 -33 -31 -36 -5 -36 11
0 19 5 17 11 -1 6 4 14 12 17 8 3 11 0 7 -7 -4 -6 0 -11 11 -11 14 0 15 -2 4
-9 -8 -5 -10 -14 -5 -22 7 -12 5 -12 -9 0 -9 7 -23 11 -32 8 -8 -4 -17 -2 -20
3 -4 6 -19 10 -35 10 -39 0 -44 13 -15 38 27 23 35 13 10 -12 -14 -13 -13 -15
4 -13 14 1 20 10 23 33 3 24 0 30 -11 26 -11 -4 -13 0 -9 16 5 17 2 22 -13 22
-10 0 -19 7 -19 15 0 18 12 19 28 3 8 -8 12 -9 12 -1 0 6 -6 13 -12 16 -10 3
-10 7 0 19 10 13 10 18 1 24 -7 4 -9 3 -6 -3 4 -6 0 -14 -9 -17 -25 -10 -36
-7 -28 6 11 18 12 48 2 48 -4 0 -8 -7 -8 -15 0 -8 -7 -15 -16 -15 -14 0 -14 3
-4 15 10 12 10 15 -4 15 -9 0 -16 5 -16 10 0 6 4 10 9 10 5 0 7 8 4 19 -3 10
0 22 5 25 15 9 2 48 -14 42 -9 -4 -14 2 -14 17 0 15 -3 18 -8 9 -18 -27 -58
11 -46 43 8 20 21 19 33 -2 5 -10 13 -15 17 -10 4 4 0 15 -9 25 -10 10 -17 23
-17 28 0 6 -7 19 -15 30 -14 18 -14 17 -5 -9 10 -30 6 -47 -11 -47 -6 0 -8 8
-4 18 8 28 -27 66 -75 82 -46 15 -61 30 -31 30 12 0 21 7 21 16 0 8 4 13 9 10
5 -3 7 -15 4 -26 -3 -11 0 -20 6 -20 11 0 15 12 12 43 -2 12 5 17 26 17 17 0
33 8 41 20 7 11 18 20 26 20 16 0 26 21 26 56 0 21 4 24 20 19 26 -8 50 11 50
39 0 12 5 27 11 33 5 5 10 29 11 52 l0 42 39 -6 c34 -6 40 -4 48 17 23 58 33
107 26 128 -7 22 -5 23 29 17 39 -6 66 11 66 42 0 10 7 24 15 31 12 10 14 24
9 61 l-7 49 41 0 c32 0 44 5 52 21 10 17 6 28 -19 67 -31 47 -28 62 7 43 26
-14 32 -5 32 45 0 41 1 43 36 50 24 4 39 14 46 30 7 15 28 30 57 40 132 46
158 56 179 70 12 8 22 23 22 34 0 11 7 20 15 20 8 0 24 9 35 20 11 11 48 33
82 48 169 78 198 95 204 118 3 13 17 30 30 39 13 8 24 21 24 28 0 7 37 30 83
51 110 51 187 103 187 127 0 37 50 92 127 139 93 58 123 84 123 110 0 35 35
81 85 110 28 16 77 51 110 77 50 40 62 57 75 100 14 48 23 58 95 111 117 86
129 101 130 168 0 47 5 59 25 76 66 53 139 129 159 166 6 11 11 36 11 54 1 30
6 36 62 68 81 46 141 101 167 150 25 48 25 50 7 50 -26 0 -29 21 -8 50 12 15
18 30 15 34 -15 15 -129 2 -243 -29z m-2596 -1150 c-10 -8 -25 -15 -31 -15 -7
0 -13 -4 -13 -8 0 -7 -20 -17 -85 -43 -31 -13 17 21 84 57 56 32 81 37 45 9z
m-1054 -833 c0 -15 -2 -15 -10 -2 -13 20 -13 33 0 25 6 -3 10 -14 10 -23z
m664 -717 c3 -8 12 -15 21 -15 8 0 15 -2 15 -4 0 -2 3 -11 6 -20 3 -9 1 -16
-6 -16 -6 0 -9 4 -5 9 3 5 1 12 -5 16 -5 3 -10 0 -11 -7 0 -7 -4 -3 -9 10 -5
12 -14 22 -20 22 -5 0 -10 5 -10 10 0 15 17 12 24 -5z m-149 -115 c3 -5 1 -10
-4 -10 -6 0 -11 5 -11 10 0 6 2 10 4 10 3 0 8 -4 11 -10z m445 -40 c0 -5 -5
-10 -11 -10 -5 0 -7 5 -4 10 3 6 8 10 11 10 2 0 4 -4 4 -10z m30 -40 c0 -5 -2
-10 -4 -10 -3 0 -8 5 -11 10 -3 6 -1 10 4 10 6 0 11 -4 11 -10z m60 -30 c0 -5
-2 -10 -4 -10 -3 0 -8 5 -11 10 -3 6 -1 10 4 10 6 0 11 -4 11 -10z m-605 -60
c3 -5 1 -10 -4 -10 -6 0 -11 5 -11 10 0 6 2 10 4 10 3 0 8 -4 11 -10z m680 0
c3 -5 -1 -10 -9 -10 -8 0 -18 5 -21 10 -3 6 1 10 9 10 8 0 18 -4 21 -10z m52
-27 c4 -10 11 -21 16 -24 6 -4 6 -15 2 -25 -8 -18 -8 -18 -13 1 -6 27 -22 46
-33 39 -10 -6 -12 9 -2 19 11 12 23 8 30 -10z m-1981 -28 c-5 -13 5 -20 27
-16 4 0 7 -6 7 -14 0 -8 6 -15 13 -15 6 0 26 -11 42 -25 25 -20 27 -26 15 -34
-19 -13 -70 17 -70 42 0 14 -5 17 -16 13 -12 -5 -15 -2 -10 10 5 13 1 15 -19
10 -14 -4 -25 -2 -25 3 0 21 13 41 27 41 9 0 13 -6 9 -15z m1884 6 c0 -5 -9
-11 -20 -14 -13 -3 -20 0 -20 9 0 8 9 14 20 14 11 0 20 -4 20 -9z m-830 -11
c0 -5 -4 -10 -10 -10 -5 0 -10 5 -10 10 0 6 5 10 10 10 6 0 10 -4 10 -10z
m910 -12 c0 -19 -2 -20 -10 -8 -13 19 -13 30 0 30 6 0 10 -10 10 -22z m-80
-12 c0 -3 -4 -8 -10 -11 -5 -3 -10 -1 -10 4 0 6 5 11 10 11 6 0 10 -2 10 -4z
m60 -10 c0 -11 -19 -15 -25 -6 -3 5 1 10 9 10 9 0 16 -2 16 -4z m10 -26 c0 -5
-7 -10 -16 -10 -8 0 -12 5 -9 10 3 6 10 10 16 10 5 0 9 -4 9 -10z m54 -11 c-3
-5 -10 -7 -15 -3 -5 3 -7 10 -3 15 3 5 10 7 15 3 5 -3 7 -10 3 -15z m-1054
-28 c0 -5 -11 -11 -25 -13 -28 -6 -35 8 -7 15 28 8 32 7 32 -2z m97 3 c-3 -3
-12 -4 -19 -1 -8 3 -5 6 6 6 11 1 17 -2 13 -5z m913 2 c0 -3 -4 -8 -10 -11 -5
-3 -10 -1 -10 4 0 6 5 11 10 11 6 0 10 -2 10 -4z m64 -4 c3 -5 -1 -9 -9 -9 -8
0 -12 4 -9 9 3 4 7 8 9 8 2 0 6 -4 9 -8z m-1894 -16 c0 -3 -4 -8 -10 -11 -5
-3 -10 -1 -10 4 0 6 5 11 10 11 6 0 10 -2 10 -4z m870 -22 c0 -8 -4 -12 -10
-9 -5 3 -10 10 -10 16 0 5 5 9 10 9 6 0 10 -7 10 -16z m64 6 c-7 -7 -19 -7
-35 -1 -23 9 -22 10 11 10 23 1 31 -2 24 -9z m-289 -60 c3 -5 1 -10 -4 -10 -6
0 -11 5 -11 10 0 6 2 10 4 10 3 0 8 -4 11 -10z m-455 -20 c0 -5 -4 -10 -10
-10 -5 0 -10 5 -10 10 0 6 5 10 10 10 6 0 10 -4 10 -10z m720 -4 c0 -3 -4 -8
-10 -11 -5 -3 -10 -1 -10 4 0 6 5 11 10 11 6 0 10 -2 10 -4z m667 -22 c-3 -3
-12 -4 -19 -1 -8 3 -5 6 6 6 11 1 17 -2 13 -5z m100 -56 c-3 -7 -5 -2 -5 12 0
14 2 19 5 13 2 -7 2 -19 0 -25z m63 -8 c0 -5 -5 -10 -11 -10 -5 0 -7 5 -4 10
3 6 8 10 11 10 2 0 4 -4 4 -10z m7 -39 c-3 -13 1 -21 12 -24 12 -4 11 -5 -4
-6 -12 0 -27 -7 -35 -13 -12 -11 -12 -10 -1 4 7 10 11 24 8 32 -5 12 3 21 22
25 2 1 1 -8 -2 -18z m-1172 -11 c4 -6 15 -8 25 -5 12 4 19 -1 23 -15 7 -26 4
-25 -41 5 -20 14 -31 25 -25 25 7 0 15 -5 18 -10z m1407 -22 c-7 -7 -12 -8
-12 -2 0 14 12 26 19 19 2 -3 -1 -11 -7 -17z m-1482 -42 c0 -8 6 -17 13 -19
20 -9 -15 -27 -38 -21 -25 8 -30 12 -22 20 4 4 13 1 22 -6 19 -15 34 -5 17 12
-15 15 -16 28 -2 28 6 0 10 -6 10 -14z m-1098 -48 c-7 -7 -12 -8 -12 -2 0 14
12 26 19 19 2 -3 -1 -11 -7 -17z m2143 -498 c8 -13 -5 -13 -25 0 -13 8 -13 10
2 10 9 0 20 -4 23 -10z m55 -4 c0 -3 -4 -8 -10 -11 -5 -3 -10 -1 -10 4 0 6 5
11 10 11 6 0 10 -2 10 -4z m-2480 -363 c-15 -56 -32 -80 -26 -38 5 39 27 97
34 91 2 -3 -1 -27 -8 -53z"/>
<path d="M4800 6979 c0 -5 5 -7 10 -4 6 3 10 8 10 11 0 2 -4 4 -10 4 -5 0 -10
-5 -10 -11z"/>
<path d="M4675 6881 c-8 -27 -6 -31 18 -22 15 6 16 9 4 26 -14 18 -15 18 -22
-4z"/>
<path d="M3753 6503 c-21 -8 -173 -185 -173 -201 0 -13 3 -13 19 2 13 12 21
14 26 6 7 -11 -50 -90 -66 -90 -5 0 -9 -10 -8 -22 0 -22 1 -22 9 -3 7 17 9 17
9 3 1 -24 10 -23 71 8 32 16 62 24 78 21 14 -3 32 0 40 7 49 39 96 101 69 90
-8 -3 -20 2 -27 11 -7 8 -21 15 -32 15 -27 0 -18 23 13 32 15 5 8 6 -20 2 -40
-4 -96 -33 -113 -58 -4 -6 -10 -7 -14 -3 -9 9 15 37 32 37 8 0 15 7 15 15 2
27 4 30 42 70 20 22 42 40 49 40 6 0 13 6 16 13 4 12 -12 15 -35 5z m27 -197
c0 -18 -16 -29 -30 -21 -13 8 -1 35 16 35 8 0 14 -6 14 -14z"/>
<path d="M4423 6490 c9 -6 14 -16 11 -22 -4 -6 -1 -9 7 -6 23 8 16 33 -11 36
-22 2 -23 1 -7 -8z"/>
<path d="M3517 6196 c-4 -10 -7 -28 -7 -42 0 -44 -24 -119 -44 -134 -46 -37
-118 -111 -112 -117 4 -4 46 1 95 10 48 9 100 17 115 17 26 0 26 1 11 24 -13
19 -13 25 -3 29 10 4 11 7 1 18 -20 20 -15 35 15 49 15 7 22 15 15 17 -6 2
-30 -5 -53 -16 l-42 -20 7 22 c3 12 8 39 10 60 3 21 7 42 10 47 3 4 1 18 -3
31 -8 20 -9 20 -15 5z"/>
<path d="M3682 6163 c-12 -2 -20 -8 -17 -13 6 -10 45 -1 45 11 0 5 -1 8 -2 8
-2 -1 -13 -4 -26 -6z"/>
<path d="M4635 5951 c-4 -7 -2 -18 4 -25 6 -7 8 -16 4 -19 -3 -4 -1 -7 5 -7 5
0 17 -3 26 -6 24 -9 19 13 -8 42 -16 18 -26 22 -31 15z"/>
<path d="M4704 5939 c-7 -12 12 -29 34 -29 19 0 14 18 -7 30 -14 7 -22 7 -27
-1z"/>
<path d="M4640 5870 c0 -5 7 -10 16 -10 9 0 12 -5 8 -12 -5 -8 -2 -9 10 -5 10
4 23 7 29 7 7 0 3 7 -7 15 -23 17 -56 20 -56 5z"/>
<path d="M4210 5856 c0 -2 7 -6 15 -10 8 -3 15 -1 15 4 0 6 -7 10 -15 10 -8 0
-15 -2 -15 -4z"/>
<path d="M4570 5849 c0 -5 -4 -7 -10 -4 -12 7 -13 -5 -2 -20 4 -5 18 -19 31
-30 l25 -20 -21 28 c-12 16 -19 35 -16 43 3 8 2 14 -1 14 -3 0 -6 -5 -6 -11z"/>
<path d="M4134 5814 c-14 -21 -39 -24 -76 -9 -11 4 -18 3 -18 -4 0 -6 3 -11 8
-11 4 0 16 -16 26 -35 20 -37 36 -45 36 -19 0 18 37 68 51 70 5 1 21 2 35 3
38 2 24 26 -16 26 -22 1 -37 -6 -46 -21z"/>
<path d="M5115 5830 c3 -5 10 -10 16 -10 5 0 9 5 9 10 0 6 -7 10 -16 10 -8 0
-12 -4 -9 -10z"/>
<path d="M4394 5775 c8 -8 17 -15 20 -15 3 0 6 7 6 15 0 9 -9 15 -21 15 -18 0
-19 -2 -5 -15z"/>
<path d="M3919 5773 c0 -4 -2 -16 -4 -25 -4 -23 2 -23 15 1 7 13 7 22 0 26 -5
3 -10 3 -11 -2z"/>
<path d="M4795 5771 c-3 -5 -1 -12 5 -16 5 -3 10 1 10 9 0 18 -6 21 -15 7z"/>
<path d="M5090 5750 c0 -5 5 -10 10 -10 6 0 10 5 10 10 0 6 -4 10 -10 10 -5 0
-10 -4 -10 -10z"/>
<path d="M3925 5720 c-3 -5 -1 -10 4 -10 6 0 11 5 11 10 0 6 -2 10 -4 10 -3 0
-8 -4 -11 -10z"/>
<path d="M5950 5706 c0 -9 5 -16 10 -16 6 0 10 4 10 9 0 6 -4 13 -10 16 -5 3
-10 -1 -10 -9z"/>
<path d="M4158 5670 c-10 -11 -13 -22 -8 -25 6 -4 10 -2 10 4 0 5 7 17 16 25
8 9 12 16 7 16 -5 0 -16 -9 -25 -20z"/>
<path d="M4880 5560 c0 -5 5 -10 11 -10 5 0 7 5 4 10 -3 6 -8 10 -11 10 -2 0
-4 -4 -4 -10z"/>
<path d="M4490 5540 c0 -5 5 -10 10 -10 6 0 10 5 10 10 0 6 -4 10 -10 10 -5 0
-10 -4 -10 -10z"/>
<path d="M4592 5473 c14 -17 28 -16 28 1 0 8 -9 14 -19 13 -15 -1 -17 -4 -9
-14z"/>
</g>
</svg>
